<?xml version="1.0" encoding="UTF-8"?>
<svg width="220px" height="220px" viewBox="0 0 220 220" version="1.1" xmlns="http://www.w3.org/2000/svg" xmlns:xlink="http://www.w3.org/1999/xlink">
    <!-- Generator: Sketch 47 (45396) - http://www.bohemiancoding.com/sketch -->
    <title>logo-new</title>
    <desc>Created with Sketch.</desc>
    <defs></defs>
    <g id="Page-1" stroke="none" stroke-width="1" fill="none" fill-rule="evenodd">
        <g id="Desktop-HD" transform="translate(-245.000000, 0.000000)">
            <g id="NAVIGATION" transform="translate(-1.000000, 0.000000)">
                <g id="logo-new" transform="translate(246.000000, 0.000000)">
                    <g id="Group" transform="translate(110.000000, 110.000000) rotate(0.000000) translate(-110.000000, -110.000000) ">
                        <rect id="Rectangle-path" fill="#008594" transform="translate(110.000000, 110.000000) rotate(-0.000000) translate(-110.000000, -110.000000) " x="0" y="0" width="220" height="220"></rect>
                        <g transform="translate(50.000000, 28.000000)" id="Shape">
                            <g transform="translate(0.202361, 0.057045)" fill="#FFFFFF">
                                <g transform="translate(0.000000, 0.000000)">
                                    <path d="M55.820837,111.883687 L0,111.883687 L0,0 L55.7852434,0 C53.0869143,1.78141727 50.8004532,5.04577803 50.4123142,7.76503138 C49.4970518,20.4925823 51.1529987,33.3772247 49.6462056,46.0702155 C49.3292536,51.3233543 43.8546285,54.3442233 40.8088386,56.2010445 C44.3834468,57.5818785 49.5902729,61.3787793 49.832648,66.6790455 C50.8987592,78.696543 49.6224766,90.8192918 50.4123142,102.871349 C50.6157058,105.967622 52.4191117,108.953931 55.820837,111.883687 Z"></path>
                                </g>
                            </g>
                            <g transform="translate(55.000000, 0.000000)" fill="#FFCD04">
                                <path d="M21.9635097,111.883807 L21.9635097,111.755113 C17.030875,111.894714 10.846195,111.0113 9.10862923,106.00747 C5.66432804,92.6035747 8.69747828,78.6630875 7.01592502,65.1021409 C6.45532881,61.1889452 3.12964244,58.5387039 0.140031377,56.0978644 C3.18565499,53.811895 6.95991247,51.4037745 7.14677787,47.370609 C8.36116763,34.261185 6.21245086,20.9619907 8.46707371,7.90273593 C9.18323418,1.84317192 16.4702788,0.283564911 21.9260895,0.0588942507 L21.9260895,0 L66.5871556,0 L66.5871556,111.883807 L21.9635097,111.883807 Z M33.5686983,22.9643952 C37.2146917,22.9643952 40.1706482,25.7040685 40.1706482,29.0850348 C40.1706482,32.4638197 37.2146917,35.203493 33.5686983,35.203493 C29.9224695,35.203493 26.9667484,32.4638197 26.9667484,29.0850348 C26.9667484,25.7040685 29.9224695,22.9643952 33.5686983,22.9643952 Z"></path>
                            </g>
                        </g>
                        <g transform="translate(111.000000, 175.500000) rotate(-0.000000) translate(-111.000000, -175.500000) translate(30.000000, 157.000000)" fill-rule="nonzero" fill="#FFFFFF">
                            <g>
                                <g>
                                    <path d="M28.4268188,20.9971705 C28.4268188,15.4767254 24.6511886,13.3536404 21.0187354,13.3536404 C18.3761478,13.3536404 15.5461927,14.6275621 14.2717408,17.6943778 C13.2341495,14.6275621 10.7329713,13.3536404 7.94932779,13.3536404 C5.5900892,13.3536404 3.32541812,14.6747575 2.00430107,17.1754054 L2.00430107,14.2971945 L0.116839493,14.2971945 L0.116839493,35.5291045 L2.00430107,35.5291045 L2.00430107,22.129506 C2.00430107,17.5999871 4.92953067,15.0049484 7.80774166,15.0049484 C10.5915619,15.0049484 13.3278332,16.5148469 13.3278332,20.9971705 L13.3278332,35.5291045 L15.2156483,35.5291045 L15.2156483,21.4219288 C15.2156483,16.8922332 17.9996453,15.0049484 20.877326,15.0049484 C23.661323,15.0049484 26.5390037,16.5148469 26.5390037,20.9971705 L26.5390037,35.5291045 L28.4268188,35.5291045 L28.4268188,20.9971705 Z" id="Shape"></path>
                                    <path d="M57.6808824,14.2971945 L55.7930673,14.2971945 L55.7930673,19.2986671 C54.0007035,15.7598976 50.461934,13.3536404 46.1206663,13.3536404 C39.7501742,13.3536404 34.5604503,18.5437179 34.5604503,24.9133262 C34.5604503,31.2831113 39.7501742,36.473012 46.1206663,36.473012 C50.461934,36.473012 54.0007035,34.0669316 55.7930673,30.5281621 L55.7930673,35.5291045 L57.6808824,35.5291045 L57.6808824,14.2971945 Z M55.7930673,24.9133262 C55.7930673,30.3865759 51.4517996,34.8217041 46.1206663,34.8217041 C40.7877654,34.8217041 36.4482654,30.3865759 36.4482654,24.9133262 C36.4482654,19.4402533 40.7877654,15.0049484 46.1206663,15.0049484 C51.4517996,15.0049484 55.7930673,19.4402533 55.7930673,24.9133262 Z" id="Shape"></path>
                                    <path d="M93.5387637,20.9971705 C93.5387637,15.4767254 89.7649011,13.3536404 86.1306803,13.3536404 C83.4898602,13.3536404 80.6581376,14.6275621 79.3836856,17.6943778 C78.3460944,14.6275621 75.8449161,13.3536404 73.0609191,13.3536404 C70.7029179,13.3536404 68.4368327,14.6747575 67.1164227,17.1754054 L67.1164227,14.2971945 L65.2286076,14.2971945 L65.2286076,35.5291045 L67.1164227,35.5291045 L67.1164227,22.129506 C67.1164227,17.5999871 70.0418291,15.0049484 72.9195098,15.0049484 C75.7035068,15.0049484 78.4397781,16.5148469 78.4397781,20.9971705 L78.4397781,35.5291045 L80.3275932,35.5291045 L80.3275932,21.4219288 C80.3275932,16.8922332 83.1115902,15.0049484 85.9892709,15.0049484 C88.7732679,15.0049484 91.6509486,16.5148469 91.6509486,20.9971705 L91.6509486,35.5291045 L93.5387637,35.5291045 L93.5387637,20.9971705 Z" id="Shape"></path>
                                    <path d="M124.206921,24.9133262 C124.206921,18.5437179 119.017197,13.3536404 112.648473,13.3536404 C108.307205,13.3536404 104.768435,15.7598976 102.976072,19.2986671 L102.976072,0.142469941 L101.088256,0.142469941 L101.088256,35.5291045 L102.976072,35.5291045 L102.976072,30.5281621 C104.768435,34.0669316 108.307205,36.473012 112.648473,36.473012 C119.017197,36.473012 124.206921,31.2831113 124.206921,24.9133262 Z M122.320874,24.9133262 C122.320874,30.3865759 117.979606,34.8217041 112.648473,34.8217041 C107.315572,34.8217041 102.976072,30.3865759 102.976072,24.9133262 C102.976072,19.4402533 107.315572,15.0049484 112.648473,15.0049484 C117.979606,15.0049484 122.320874,19.4402533 122.320874,24.9133262 Z" id="Shape"></path>
                                    <rect id="Rectangle-path" x="130.34232" y="0.142469941" width="1.88728482" height="35.3871648"></rect>
                                    <path d="M161.482431,24.9133262 C161.482431,18.5437179 156.292707,13.3536404 149.922215,13.3536404 C143.553491,13.3536404 138.361999,18.5437179 138.361999,24.9133262 C138.361999,31.2831113 143.553491,36.473012 149.922215,36.473012 C154.215757,36.473012 157.943662,34.1611456 159.92516,30.7169436 L158.36789,29.7732128 C156.66921,32.7928331 153.50871,34.8217041 149.922215,34.8217041 C144.826175,34.8217041 140.674042,30.8111576 140.29754,25.7154709 L161.434706,25.7154709 C161.482431,25.4324754 161.482431,25.1964985 161.482431,24.9133262 Z M140.29754,24.0641629 C140.721768,18.9682995 144.873901,15.0049484 149.922215,15.0049484 C154.97053,15.0049484 159.122662,18.9682995 159.548658,24.0641629 L140.29754,24.0641629 Z" id="Shape"></path>
                                </g>
                            </g>
                        </g>
                    </g>
                </g>
            </g>
        </g>
    </g>
</svg>